<svg xmlns="http://www.w3.org/2000/svg" xmlns:xlink="http://www.w3.org/1999/xlink" width="500" zoomAndPan="magnify" viewBox="0 0 375 374.999991" height="500" preserveAspectRatio="xMidYMid meet" version="1.0"><defs><clipPath id="678f547df4"><path d="M 125.570312 37.5 L 302 37.5 L 302 243 L 125.570312 243 Z M 125.570312 37.5 " clip-rule="nonzero"/></clipPath><clipPath id="1bb788a629"><path d="M 49 73.816406 L 256.75 73.816406 L 256.75 325.066406 L 49 325.066406 Z M 49 73.816406 " clip-rule="nonzero"/></clipPath></defs><g clip-path="url(#678f547df4)"><path fill="#ff3131" d="M 214.203125 113.1875 L 213.867188 89.441406 L 196.851562 89.441406 C 196.851562 89.441406 126.414062 134.078125 126.4375 133.328125 L 125.761719 242.707031 L 243.660156 242.417969 C 298.097656 242.269531 311.097656 184.398438 291.828125 156.367188 L 266.703125 172.03125 C 278.566406 188.199219 270.964844 211.871094 243.007812 211.871094 L 156.621094 211.796875 L 157.300781 150.609375 Z M 268.859375 102.003906 C 266.703125 109.023438 259.855469 115.246094 251.941406 120.738281 C 243.832031 126.355469 234.632812 131.21875 228.269531 135.359375 L 184.191406 163.605469 L 184.554688 198.992188 L 220.039062 176.941406 C 263.21875 148.308594 303.328125 135.722656 301.097656 88.546875 C 300.324219 71.820312 292.605469 56.136719 283.9375 48.320312 C 272.925781 38.347656 262.515625 37.5 248.671875 37.5 L 125.589844 37.5 L 125.640625 103.628906 L 156.523438 86.417969 L 156.9375 67.730469 L 250.414062 67.730469 C 269.292969 67.730469 273.410156 87.046875 268.859375 102.003906 Z M 268.859375 102.003906 " fill-opacity="1" fill-rule="evenodd"/></g><g clip-path="url(#1bb788a629)"><path fill="#ff3131" d="M 62.414062 85.820312 L 62.414062 259.542969 L 49 244.425781 L 49 73.890625 Z M 102.546875 121.507812 L 102.546875 244.746094 L 115.960938 244.746094 L 115.960938 133.425781 Z M 183.355469 260.136719 L 89.609375 260.136719 L 89.609375 109.980469 L 76.1875 98.066406 L 76.1875 273.574219 L 198.453125 273.574219 Z M 212.464844 286.003906 L 85.964844 286.003906 L 97.886719 299.421875 L 227.558594 299.421875 Z M 241.582031 311.878906 L 108.96875 311.878906 L 120.890625 325.300781 L 256.417969 325.300781 Z M 241.582031 311.878906 " fill-opacity="1" fill-rule="nonzero"/></g></svg>